<?xml version="1.0" encoding="UTF-8"?>
<svg version="1.1" xmlns="http://www.w3.org/2000/svg" width="256" height="256">
<path d="M0 0 C2.14550269 0.01611324 4.28912304 0.00001681 6.43457031 -0.01904297 C19.13558384 -0.03922888 31.68672927 1.59642295 43.64550781 6.07861328 C44.33999023 6.33280029 45.03447266 6.5869873 45.75 6.84887695 C65.45345423 14.28552862 81.31940817 25.44954557 96.14550781 40.39111328 C96.90089844 41.13748047 97.65628906 41.88384766 98.43457031 42.65283203 C119.82265632 64.86353673 130.30668327 95.13225964 130.38574219 125.56665039 C130.3953486 127.79173631 130.42638284 130.01585662 130.45800781 132.24072266 C130.69431662 164.16832426 117.43312822 194.69759251 95.14550781 217.39111328 C71.83955541 240.91352964 42.34355214 256.56677961 8.57579041 256.80456543 C7.14751443 256.80236694 5.71923694 256.79491463 4.29101562 256.78222656 C2.14551293 256.76611332 0.00189259 256.78220975 -2.14355469 256.80126953 C-15.51257879 256.82328329 -28.31430356 254.8076213 -40.91699219 250.20361328 C-41.75713867 249.90028076 -42.59728516 249.59694824 -43.46289062 249.28442383 C-63.93290463 241.66364551 -83.06104952 228.40595445 -96.85449219 211.39111328 C-97.55445312 210.52873047 -98.25441406 209.66634766 -98.97558594 208.77783203 C-116.72907538 186.03982735 -126.01970933 160.09408415 -126.09472656 131.21557617 C-126.10433298 128.99049026 -126.13536722 126.76636994 -126.16699219 124.54150391 C-126.40952352 91.77317926 -112.52626648 61.6134878 -89.85449219 38.39111328 C-89.07589844 37.53904297 -88.29730469 36.68697266 -87.49511719 35.80908203 C-74.40274595 21.85999523 -57.15780821 12.61150581 -39.35449219 6.07861328 C-38.73968994 5.84811279 -38.1248877 5.6176123 -37.49145508 5.38012695 C-25.32115273 1.16226603 -12.79431667 -0.11366249 0 0 Z " fill="#FDCF99" transform="translate(125.8544921875,-0.39111328125)"/>
<path d="M0 0 C2.14550269 0.01611324 4.28912304 0.00001681 6.43457031 -0.01904297 C19.13558384 -0.03922888 31.68672927 1.59642295 43.64550781 6.07861328 C44.33999023 6.33280029 45.03447266 6.5869873 45.75 6.84887695 C65.45345423 14.28552862 81.31940817 25.44954557 96.14550781 40.39111328 C96.90089844 41.13748047 97.65628906 41.88384766 98.43457031 42.65283203 C119.82265632 64.86353673 130.30668327 95.13225964 130.38574219 125.56665039 C130.3953486 127.79173631 130.42638284 130.01585662 130.45800781 132.24072266 C130.69431662 164.16832426 117.43312822 194.69759251 95.14550781 217.39111328 C71.83955541 240.91352964 42.34355214 256.56677961 8.57579041 256.80456543 C7.14751443 256.80236694 5.71923694 256.79491463 4.29101562 256.78222656 C2.14551293 256.76611332 0.00189259 256.78220975 -2.14355469 256.80126953 C-15.51257879 256.82328329 -28.31430356 254.8076213 -40.91699219 250.20361328 C-41.75713867 249.90028076 -42.59728516 249.59694824 -43.46289062 249.28442383 C-63.93290463 241.66364551 -83.06104952 228.40595445 -96.85449219 211.39111328 C-97.55445312 210.52873047 -98.25441406 209.66634766 -98.97558594 208.77783203 C-116.72907538 186.03982735 -126.01970933 160.09408415 -126.09472656 131.21557617 C-126.10433298 128.99049026 -126.13536722 126.76636994 -126.16699219 124.54150391 C-126.40952352 91.77317926 -112.52626648 61.6134878 -89.85449219 38.39111328 C-89.07589844 37.53904297 -88.29730469 36.68697266 -87.49511719 35.80908203 C-74.40274595 21.85999523 -57.15780821 12.61150581 -39.35449219 6.07861328 C-38.73968994 5.84811279 -38.1248877 5.6176123 -37.49145508 5.38012695 C-25.32115273 1.16226603 -12.79431667 -0.11366249 0 0 Z M-20.85449219 8.39111328 C-21.27319772 11.06039449 -21.27319772 11.06039449 -20.85449219 13.39111328 C-22.46324219 13.48392578 -22.46324219 13.48392578 -24.10449219 13.57861328 C-27.9016799 14.09273825 -27.9016799 14.09273825 -30.35449219 16.51611328 C-32.34995228 20.34074513 -32.04829198 22.28742649 -30.85449219 26.39111328 C-28.96338108 28.70924948 -27.51621188 30.06025343 -24.85449219 31.39111328 C-25.80324219 32.00986328 -26.75199219 32.62861328 -27.72949219 33.26611328 C-30.79894328 35.21082297 -30.79894328 35.21082297 -32.85449219 37.39111328 C-33.36000308 43.74033946 -33.36000308 43.74033946 -30.85449219 49.39111328 C-28.03939225 51.66846338 -28.03939225 51.66846338 -24.85449219 51.39111328 C-24.77199219 52.46361328 -24.68949219 53.53611328 -24.60449219 54.64111328 C-23.78815885 58.72277998 -23.27069941 60.08286516 -19.85449219 62.39111328 C-16.85449219 62.97444661 -16.85449219 62.97444661 -13.85449219 62.39111328 C-12.53449219 61.40111328 -11.21449219 60.41111328 -9.85449219 59.39111328 C-9.35949219 64.34111328 -9.35949219 64.34111328 -8.85449219 69.39111328 C-9.70011719 68.73111328 -10.54574219 68.07111328 -11.41699219 67.39111328 C-17.21349556 64.06525069 -24.42129261 64.44729975 -30.85449219 65.39111328 C-33.94824608 67.15690498 -36.34345882 68.88007991 -38.85449219 71.39111328 C-40.73730469 71.59423828 -40.73730469 71.59423828 -42.97949219 71.64111328 C-46.89143098 71.96503178 -48.77557845 72.8277997 -51.72949219 75.39111328 C-54.97312618 78.12090426 -56.93922086 78.72666702 -61.16699219 78.82861328 C-68.87442773 79.10771262 -74.5339649 83.38134591 -80.10839844 88.43408203 C-82.06714187 90.36968917 -82.06714187 90.36968917 -82.85449219 93.39111328 C-83.57636719 93.80361328 -84.29824219 94.21611328 -85.04199219 94.64111328 C-90.0377918 97.74961082 -94.48661113 102.99760644 -96.85449219 108.39111328 C-97.08376632 111.11183293 -96.99379493 113.65149267 -96.85449219 116.39111328 C-97.41136719 116.59736328 -97.96824219 116.80361328 -98.54199219 117.01611328 C-103.30987463 119.85107041 -106.19251579 124.19001749 -107.85449219 129.39111328 C-108.14176988 132.93694084 -108.23112864 136.46014197 -108.31542969 140.01611328 C-108.94104622 143.93301681 -110.18288932 145.53014393 -112.85449219 148.39111328 C-115.02882337 151.76132661 -115.18629838 154.40943899 -114.85449219 158.39111328 C-114.52320312 159.01888672 -114.19191406 159.64666016 -113.85058594 160.29345703 C-112.70788743 162.69984566 -112.61771314 164.3059846 -112.66699219 166.95361328 C-112.6734375 167.71802734 -112.67988281 168.48244141 -112.68652344 169.27001953 C-112.85449219 171.39111328 -112.85449219 171.39111328 -113.85449219 174.39111328 C-114.34940351 179.4227117 -114.49521211 181.392344 -111.72949219 185.70361328 C-108.86375949 188.38245037 -106.34477076 189.68310462 -102.85449219 191.39111328 C-101.86449219 192.72142578 -101.86449219 192.72142578 -100.85449219 194.07861328 C-99.0502405 196.68145006 -99.0502405 196.68145006 -96.04199219 196.76611328 C-93.70395014 196.49104951 -91.37094659 196.1722295 -89.04199219 195.82861328 C-87.46417969 195.61205078 -87.46417969 195.61205078 -85.85449219 195.39111328 C-85.52449219 195.72111328 -85.19449219 196.05111328 -84.85449219 196.39111328 C-79.46921248 197.0173086 -77.19407304 195.40225102 -72.85449219 192.39111328 C-70.53518696 191.53835863 -68.26395938 190.96938541 -65.85449219 190.39111328 C-66.36053211 192.5598558 -66.85433032 194.39078955 -67.85449219 196.39111328 C-68.71697197 203.74339993 -67.43242163 209.9224064 -63.85449219 216.39111328 C-60.71494707 220.19662251 -58.22101928 220.49475841 -53.54199219 220.95361328 C-49.76509344 221.49894091 -48.29233366 221.90213704 -45.71386719 224.78173828 C-43.79199219 227.70361328 -43.79199219 227.70361328 -42.19433594 230.56689453 C-38.20473352 235.38239128 -33.1819722 238.05767234 -26.92358398 238.68481445 C-22.7993125 238.66243443 -18.71341329 238.39801596 -14.60058594 238.10791016 C-7.88412504 237.82984012 -4.70850433 238.58097764 0.36181641 243.01342773 C4.03155664 245.84785754 8.13759175 245.04952678 12.52832031 244.85595703 C18.73087151 244.05886892 25.23212736 242.65168071 30.25488281 238.75439453 C32.79768343 236.92084615 34.82738406 237.35585632 37.86035156 237.46923828 C44.33804916 237.24777853 50.54565881 234.99096228 55.14550781 230.39111328 C55.47550781 229.73111328 55.80550781 229.07111328 56.14550781 228.39111328 C57.73878906 228.58640625 57.73878906 228.58640625 59.36425781 228.78564453 C69.64673225 230.05958727 69.64673225 230.05958727 78.73144531 225.79345703 C83.21817957 221.34390566 84.17352525 217.88833677 84.39550781 211.64111328 C84.76698839 206.47134198 85.70935174 204.07918786 89.01660156 200.23486328 C90.955146 197.06879763 90.6732243 193.60017473 90.83691406 189.96923828 C91.26613454 186.38334568 93.0208733 184.2460909 95.14550781 181.39111328 C95.93621329 178.16072486 95.93621329 178.16072486 96.14550781 175.39111328 C96.89316406 175.48650391 97.64082031 175.58189453 98.41113281 175.68017578 C99.39597656 175.79103516 100.38082031 175.90189453 101.39550781 176.01611328 C102.37003906 176.13212891 103.34457031 176.24814453 104.34863281 176.36767578 C107.34842317 176.39281369 108.5981941 175.86503065 111.14550781 174.39111328 C112.90894531 173.95798828 112.90894531 173.95798828 114.70800781 173.51611328 C118.41137097 172.30410352 119.33196327 171.73185323 121.14550781 168.39111328 C126.00828952 157.45444197 125.85300362 141.85076258 121.93457031 130.69970703 C121.1338659 128.35705205 120.62210446 126.06852503 120.14550781 123.64111328 C119.34833558 119.86118826 117.96952969 116.8111543 116.14550781 113.39111328 C115.85675781 112.38048828 115.56800781 111.36986328 115.27050781 110.32861328 C113.86505055 106.6588082 112.14304852 104.91177251 109.14550781 102.39111328 C108.11425781 101.97861328 107.08300781 101.56611328 106.02050781 101.14111328 C102.23832688 98.83891619 101.90501566 96.71563509 100.88378906 92.54736328 C100.04879443 90.1086488 99.13756219 88.99891352 97.14550781 87.39111328 C96.18644531 87.20548828 96.18644531 87.20548828 95.20800781 87.01611328 C93.14550781 86.39111328 93.14550781 86.39111328 91.46972656 84.00830078 C88.62955196 80.81012097 85.88382444 79.97681346 81.89550781 78.89111328 C75.9697878 77.11404114 71.20620734 74.96337177 66.14550781 71.39111328 C62.5262153 69.58146702 58.20667493 70.03728574 54.21191406 69.86767578 C51.14550781 69.39111328 51.14550781 69.39111328 49.85546875 67.87304688 C47.25307377 65.61768744 45.10233917 66.10221236 41.71972656 66.20361328 C40.44806641 66.22681641 39.17640625 66.25001953 37.86621094 66.27392578 C36.52175922 66.31120354 35.1773563 66.35028216 33.83300781 66.39111328 C31.21229456 66.4679295 28.59113167 66.53092729 25.96972656 66.57861328 C24.22308716 66.63082031 24.22308716 66.63082031 22.44116211 66.68408203 C18.71609493 66.35294042 16.38718446 65.19745256 13.14550781 63.39111328 C6.92910621 62.30164084 1.8125921 63.91820377 -3.85449219 66.39111328 C-3.85449219 63.75111328 -3.85449219 61.11111328 -3.85449219 58.39111328 C-3.35949219 58.90673828 -2.86449219 59.42236328 -2.35449219 59.95361328 C0.83133402 61.78546335 2.69166377 61.57815368 6.23925781 60.96923828 C9.09389117 60.10348882 10.47419874 58.82843902 12.14550781 56.39111328 C12.14550781 55.07111328 12.14550781 53.75111328 12.14550781 52.39111328 C13.23863281 52.30861328 14.33175781 52.22611328 15.45800781 52.14111328 C19.07797924 51.71013788 19.07797924 51.71013788 21.08300781 49.76611328 C22.53348046 46.5238803 22.40554905 43.90166994 22.14550781 40.39111328 C21.81550781 39.73111328 21.48550781 39.07111328 21.14550781 38.39111328 C20.48550781 38.39111328 19.82550781 38.39111328 19.14550781 38.39111328 C19.14550781 37.73111328 19.14550781 37.07111328 19.14550781 36.39111328 C19.74363281 36.28798828 20.34175781 36.18486328 20.95800781 36.07861328 C23.54731799 35.26483008 24.47242117 34.51536936 26.14550781 32.39111328 C26.7707837 29.01687674 26.65568285 25.77934097 26.14550781 22.39111328 C24.53845175 19.69468629 24.53845175 19.69468629 22.14550781 18.39111328 C21.15550781 18.39111328 20.16550781 18.39111328 19.14550781 18.39111328 C19.22800781 17.33923828 19.31050781 16.28736328 19.39550781 15.20361328 C19.38974173 11.41918753 19.38974173 11.41918753 17.70800781 8.45361328 C14.4978259 5.86980833 12.4666627 5.49744415 8.40332031 5.69189453 C4.14052097 7.01203481 2.24219116 10.66201219 0.14550781 14.39111328 C-0.18449219 15.05111328 -0.51449219 15.71111328 -0.85449219 16.39111328 C-1.1084375 15.77623047 -1.36238281 15.16134766 -1.62402344 14.52783203 C-1.96820313 13.71958984 -2.31238281 12.91134766 -2.66699219 12.07861328 C-3.0034375 11.27810547 -3.33988281 10.47759766 -3.68652344 9.65283203 C-4.86993184 7.3612151 -5.81445783 5.95960685 -7.85449219 4.39111328 C-13.53921957 3.74928922 -16.89612129 3.81424693 -20.85449219 8.39111328 Z " fill="#FEFDFD" transform="translate(125.8544921875,-0.39111328125)"/>
<path d="M0 0 C3.88113714 3.54364695 5.67710276 6.94893781 7 12 C7.42152344 11.36191406 7.84304687 10.72382813 8.27734375 10.06640625 C8.82519531 9.24011719 9.37304688 8.41382813 9.9375 7.5625 C10.48277344 6.73878906 11.02804688 5.91507813 11.58984375 5.06640625 C13 3 13 3 14 2 C17.05381859 1.56639493 19.94948345 1.53602283 23 2 C25.5625 4.0625 25.5625 4.0625 27 7 C27.25 10.8125 27.25 10.8125 27 14 C27.598125 14.103125 28.19625 14.20625 28.8125 14.3125 C31.40181017 15.1262832 32.32691336 15.87574392 34 18 C34.62527589 21.37423654 34.51017504 24.61177231 34 28 C32.1875 30.625 32.1875 30.625 30 32 C29.01 32 28.02 32 27 32 C27 32.66 27 33.32 27 34 C27.66 34 28.32 34 29 34 C30.56935594 37.13871188 30.35201103 39.53855822 30 43 C27.8125 45.9375 27.8125 45.9375 25 48 C22.1875 48.3125 22.1875 48.3125 20 48 C19.95875 48.928125 19.9175 49.85625 19.875 50.8125 C19 54 19 54 16.25 55.875 C13.12279679 56.95749342 11.24677264 57.51264831 8 57 C5.6875 55.5 5.6875 55.5 4 54 C4 56.64 4 59.28 4 62 C5.134375 61.505 6.26875 61.01 7.4375 60.5 C11.94203296 58.82574881 16.23614102 58.16509688 21 59 C21.89614014 59.49935059 22.79228027 59.99870117 23.71557617 60.51318359 C27.42527879 62.19251824 29.77828134 62.30843302 33.82421875 62.1875 C35.09974609 62.16429687 36.37527344 62.14109375 37.68945312 62.1171875 C39.69736812 62.05833313 41.7052833 61.99945988 43.71313477 61.93847656 C45.66652993 61.88431457 47.62039807 61.84815005 49.57421875 61.8125 C51.31578247 61.76029297 51.31578247 61.76029297 53.0925293 61.70703125 C56.37059735 62.03734292 56.95163666 62.57460598 59 65 C61.89392396 65.395492 61.89392396 65.395492 65.125 65.375 C70.66054699 65.68083133 74.04712378 66.64592459 78.67578125 69.59765625 C83.9693146 72.79156965 89.97572279 74.88511815 95.765625 77.01953125 C98.47412813 78.20805273 99.25014355 79.66685807 101 82 C102.65204456 82.70211894 104.31923769 83.36971413 106 84 C107.6875 85.125 107.6875 85.125 109 87 C109.185625 88.258125 109.37125 89.51625 109.5625 90.8125 C110.20000698 93.88156016 110.74617761 94.80495295 113.27734375 96.75 C115.05553132 97.77048067 116.85908876 98.74828776 118.6875 99.67578125 C123.33723799 102.33838459 123.89921482 106.80582804 125.21875 111.625 C125.95663132 114.22411965 125.95663132 114.22411965 128 117 C128.39917546 118.94598035 128.7252498 120.90759234 129 122.875 C129.43275177 125.9583564 129.82947992 128.59937289 131.05078125 131.46875 C133.00386328 136.67696874 132.1823952 142.51637652 132 148 C131.97035156 149.01578125 131.94070312 150.0315625 131.91015625 151.078125 C131.51251588 158.02228359 130.03203142 163.96796858 125 169 C118.33253354 171.31320265 110.93189188 173.01248474 104 171 C103.9175 171.86625 103.835 172.7325 103.75 173.625 C103 177 103 177 101 179.6875 C98.909346 183.15014568 98.73883479 184.52607368 98.5625 188.4375 C98.35820451 192.33482931 98.05608291 194.46632671 95.5 197.4375 C92.20793643 201.33154091 92.45630086 205.25581432 92.234375 210.1875 C91.8772082 214.47350162 90.28106802 217.35291254 87.6875 220.6875 C82.68535009 224.57806104 78.23218606 225.57294018 72 225 C70.95392578 224.79697266 70.95392578 224.79697266 69.88671875 224.58984375 C67.53967798 224.08365278 67.53967798 224.08365278 64 224 C61.29182272 226.20802268 61.29182272 226.20802268 59 229 C54.32364228 232.11757181 50.06044217 232.43838293 44.5859375 232.69140625 C41.88327692 233.01392919 40.36533372 233.70480755 38 235 C36.15428923 235.70988876 34.29941311 236.39626442 32.4375 237.0625 C31.48746094 237.40410156 30.53742188 237.74570313 29.55859375 238.09765625 C25.30164811 239.59896074 21.84100908 240.27594238 17.3125 240.4375 C16.13300781 240.49808594 14.95351562 240.55867187 13.73828125 240.62109375 C9.82678387 239.97122114 9.1136344 239.4571393 6.28515625 236.9765625 C1.20576002 232.82303712 -3.59027388 233.49419535 -9.875 233.9375 C-18.44361858 234.51413031 -24.83311989 234.15793006 -32 229 C-34.33984375 226.17578125 -34.33984375 226.17578125 -35.9375 223.3125 C-38.58509611 219.20798016 -38.58509611 219.20798016 -42.765625 216.984375 C-44.67659459 216.7084596 -46.59405688 216.47359732 -48.515625 216.28515625 C-52.17174581 215.86550716 -53.66582875 214.82929849 -56 212 C-59.53973806 205.60034112 -61.08860502 199.28239219 -60 192 C-58.5 188.375 -58.5 188.375 -57 186 C-62.32856909 186.41792699 -65.05829108 187.39615184 -69 191 C-71.73247348 192.36623674 -73.98198902 192.128426 -77 192 C-77.33 191.67 -77.66 191.34 -78 191 C-80.08588501 191.25042405 -82.1688291 191.5255224 -84.25 191.8125 C-90.45273104 192.36039663 -90.45273104 192.36039663 -92.76171875 190.83984375 C-93.91591787 189.27918248 -94.95991532 187.63892132 -96 186 C-97.99180409 184.98377342 -99.99152635 183.98287008 -102 183 C-104.38418679 180.80403848 -105.82329393 179.27178591 -106.27734375 176.00390625 C-106.33083195 172.76489856 -106.02533148 170.07599445 -105 167 C-104.88312662 165.52413385 -104.82498258 164.04293388 -104.8125 162.5625 C-104.79832031 161.80066406 -104.78414062 161.03882813 -104.76953125 160.25390625 C-105.02566846 157.74897115 -105.81579643 156.19988586 -107 154 C-107.83546292 148.74851881 -106.01408315 145.85867138 -103.19140625 141.63671875 C-102 140 -102 140 -101 139 C-100.86653208 136.81409212 -100.76872642 134.62597189 -100.6875 132.4375 C-100.16401742 124.51277909 -98.55972264 119.92539731 -93.375 114 C-91 112 -91 112 -89 112 C-89.12375 110.865625 -89.2475 109.73125 -89.375 108.5625 C-89.38700965 101.78905507 -84.77521939 96.72123058 -80.3125 92 C-78 90 -78 90 -75 89 C-74.62875 88.29875 -74.2575 87.5975 -73.875 86.875 C-70.51657699 81.72541806 -64.75130767 77.27633019 -59 75 C-57.25370052 74.85899445 -55.50172563 74.78002958 -53.75 74.75 C-48.37283655 74.37916114 -45.95532689 72.80323417 -41.96875 69.34765625 C-39.09177008 67.378295 -36.5153185 67.48673655 -33.11328125 67.33984375 C-29.45012536 66.75075953 -27.60379284 64.5402857 -25 62 C-20.17474366 59.58737183 -13.30707522 60.57254729 -8 61 C-5.09608133 62.01993462 -3.44577872 63.09109954 -1 65 C-1.33 61.7 -1.66 58.4 -2 55 C-3.32 55.99 -4.64 56.98 -6 58 C-8.9375 58.5625 -8.9375 58.5625 -12 58 C-15.05976787 55.13978221 -16.85276835 53.35453122 -17.3125 49.125 C-17.209375 48.42375 -17.10625 47.7225 -17 47 C-17.8971875 46.8453125 -17.8971875 46.8453125 -18.8125 46.6875 C-21.31803315 45.90004672 -22.32759243 44.99096139 -24 43 C-25.61730505 39.7653899 -25.72742643 36.48363849 -25 33 C-22.83394504 30.26743836 -20.11432576 28.55716288 -17 27 C-17.78375 26.608125 -18.5675 26.21625 -19.375 25.8125 C-22.44594603 23.69208488 -23.16223547 22.60238746 -24 19 C-23.9192814 15.04478842 -23.49138897 13.51868835 -20.75 10.625 C-17.80867557 8.88694466 -16.3450389 8.61770984 -13 9 C-13.103125 8.2575 -13.20625 7.515 -13.3125 6.75 C-13 4 -13 4 -11 1.6875 C-7.20016326 -0.44990816 -4.26167352 -1.13874677 0 0 Z M8 77 C7.46375 77.5775 6.9275 78.155 6.375 78.75 C5 80 5 80 2.625 80.4375 C-0.80677547 79.86553742 -2.40476906 78.25375319 -5 76 C-9.62792546 74.45735818 -14.17195265 74.35301383 -19 75 C-20.80217005 76.01246946 -20.80217005 76.01246946 -22.1875 77.4375 C-25.32186064 80.29325081 -26.84636817 80.37059384 -30.95703125 80.6328125 C-33.37049458 81.06658985 -34.59410758 81.93179688 -36.5625 83.375 C-41.41298006 86.75680881 -46.79045381 87.23646754 -52.51171875 88.03125 C-56.70304922 89.19524771 -58.26406754 90.66513311 -61 94 C-61.49113281 94.87269531 -61.98226562 95.74539062 -62.48828125 96.64453125 C-64.35974231 99.56052872 -66.0687467 100.26088413 -69.1875 101.6875 C-71.91771549 103.08795651 -71.91771549 103.08795651 -74 105 C-74.41678599 107.64988148 -74.1326971 109.86945764 -73.83203125 112.52734375 C-74 115 -74 115 -75.63671875 117.12890625 C-78.61212026 119.68764471 -81.73733146 121.82488764 -85 124 C-85.35423924 127.32612006 -85.43639539 130.54376043 -85.43945312 133.8828125 C-85.57838622 139.03770941 -86.75048776 141.81578251 -90 146 C-91.07642709 147.88850355 -91.07642709 147.88850355 -91 150 C-90.26765242 151.6311378 -89.52977773 153.26020364 -88.75390625 154.87109375 C-87.82584863 157.49177459 -87.70801705 159.85271357 -87.5625 162.625 C-87.30836502 166.12534969 -87.07393034 167.86351321 -85.375 171 C-82.40110809 173.50433003 -79.69775925 174.81143453 -76 176 C-73.81656815 175.93391003 -73.81656815 175.93391003 -72 175 C-71.278125 174.71125 -70.55625 174.4225 -69.8125 174.125 C-67.66463278 173.05935276 -67.66463278 173.05935276 -67 170 C-66.84916932 168.06433956 -66.72742845 166.1263243 -66.625 164.1875 C-66.18388951 158.39704963 -65.20781834 154.20781834 -61 150 C-60.71331807 147.63125438 -60.49459597 145.25407197 -60.3125 142.875 C-59.680131 136.68044023 -58.24636121 132.81339444 -53.75390625 128.41796875 C-50.1237677 125.48313514 -48.11237582 124.72520228 -43.5 124.75 C-42.06140625 124.74226563 -42.06140625 124.74226563 -40.59375 124.734375 C-38 125 -38 125 -35 127 C-34.6660909 130.00518187 -34.47047804 132.10250344 -35 135 C-37.16385775 137.49675894 -38.97600808 137.99232259 -42.125 139 C-45.28615876 139.77529656 -45.28615876 139.77529656 -47 143 C-47.06633596 145.59287083 -47.04163307 148.10216793 -46.9375 150.6875 C-46.78724147 156.87787426 -47.50048103 161.34891363 -50 167 C-49.45093054 171.35031953 -46.7791296 173.73452272 -44 177 C-43.01956036 179.94131891 -42.88378798 181.82501665 -42.90234375 184.88671875 C-42.90556641 185.82451172 -42.90878906 186.76230469 -42.91210938 187.72851562 C-42.92467773 189.19321289 -42.92467773 189.19321289 -42.9375 190.6875 C-42.94201172 191.67556641 -42.94652344 192.66363281 -42.95117188 193.68164062 C-42.96295697 196.12115474 -42.97940989 198.56054689 -43 201 C-42.29375488 201.31187256 -41.58750977 201.62374512 -40.85986328 201.94506836 C-32.65671083 205.63398846 -28.32733455 209.68166362 -25 218 C-21.38886412 220.593534 -17.4464452 220.26221834 -13.1875 220.1875 C-12.50107422 220.18685547 -11.81464844 220.18621094 -11.10742188 220.18554688 C-7.69690983 220.15650751 -4.66451657 219.93784728 -1.2890625 219.3125 C2.57778779 218.9451033 3.75341608 219.52488383 6.8125 221.8125 C7.93591797 222.62654297 7.93591797 222.62654297 9.08203125 223.45703125 C11 225 11 225 13 227 C21.52598863 228.21597848 26.42029429 226.3715124 33.19140625 221.38671875 C37.3947865 219.31133629 41.61895782 219.59827028 46.20507812 219.6484375 C50.00181092 219.56287732 51.62000789 219.38188891 54.34765625 216.640625 C54.89292969 215.76921875 55.43820313 214.8978125 56 214 C58.375 211.125 58.375 211.125 61 209 C64.13777068 209.12304983 66.20701911 209.60350956 69 211 C71.14246318 211.23502905 71.14246318 211.23502905 73.5 211.25 C74.2940625 211.27578125 75.088125 211.3015625 75.90625 211.328125 C76.5971875 211.21984375 77.288125 211.1115625 78 211 C80.27518781 207.58721828 80.21669938 206.19599963 80.3125 202.1875 C80.68068592 196.37294128 82.28326505 194.46008195 86 190 C86.44394176 186.91777579 86.56432188 183.89149746 86.6875 180.78125 C87.08875279 177.21010013 88.49502653 175.50497347 91 173 C91 172.01 91 171.02 91 170 C90.38125 169.7525 89.7625 169.505 89.125 169.25 C86.53724008 167.72778828 85.94407342 166.83222025 85 164 C84.16579227 158.75640856 85.94042063 156.03241812 88.90625 151.9296875 C90.32873429 149.78970269 90.32873429 149.78970269 90 146 C89.34902344 145.525625 88.69804687 145.05125 88.02734375 144.5625 C86 143 86 143 85.56640625 140.625 C85.56511719 139.75875 85.56382812 138.8925 85.5625 138 C85.45297898 135.34581723 85.45297898 135.34581723 85 133 C82.67676547 131.37249963 82.67676547 131.37249963 80 130 C79.0625 127.9765625 79.0625 127.9765625 78.1875 125.5625 C76.86205038 122.06915724 76.86205038 122.06915724 74.0078125 119.83984375 C73.28335938 119.56269531 72.55890625 119.28554687 71.8125 119 C69.71484375 118.1640625 69.71484375 118.1640625 68 117 C66.87631849 113.99265914 66.59442451 111.18315305 67 108 C69 106 69 106 71.3125 105.6875 C74.60397684 106.07022987 76.20213447 107.21954012 79 109 C81.35269025 110.08771638 83.72584267 111.11468114 86.109375 112.1328125 C88 113 88 113 89 114 C89.061875 115.258125 89.12375 116.51625 89.1875 117.8125 C89.58835539 121.60364083 89.79843073 121.83622497 93 124.4375 C93.99 124.953125 94.98 125.46875 96 126 C97.9778566 127.9778566 97.37283099 131.77385744 97.5234375 134.45703125 C98.07390681 137.39437161 99.21448449 138.65160881 101 141 C101.58203125 143.4375 101.58203125 143.4375 101.8125 146 C101.90144531 146.845625 101.99039063 147.69125 102.08203125 148.5625 C102 151 102 151 100.94921875 153.0625 C99.77362456 154.98670699 99.77362456 154.98670699 100.375 157.25 C100.58125 157.8275 100.7875 158.405 101 159 C109.38631895 157.62384095 109.38631895 157.62384095 117 154 C119.30875884 150.57639528 119.26845599 147.49320271 119.25 143.4375 C119.25515625 142.30183594 119.2603125 141.16617188 119.265625 139.99609375 C119.22500727 136.81853574 119.22500727 136.81853574 117 134 C116.7265625 131.984375 116.7265625 131.984375 116.625 129.75 C116.1904516 124.87515705 114.57098646 122.12916007 112 118 C111.67 116.948125 111.34 115.89625 111 114.8125 C109.8367186 111.54077106 108.69257279 110.16901697 106 108 C104.96875 107.608125 103.9375 107.21625 102.875 106.8125 C100 105 100 105 99.34765625 102.91796875 C99.07493452 101.31020922 98.81185335 99.70078367 98.55859375 98.08984375 C98.1488493 95.71158254 98.1488493 95.71158254 95.5 94.0625 C94.675 93.711875 93.85 93.36125 93 93 C92.01 92.01 92.01 92.01 91 91 C89.47645091 90.35150048 87.93106226 89.7535598 86.375 89.1875 C81.13019085 87.15333379 75.40133528 84.78563577 71.64990234 80.43383789 C69.56665071 78.62340036 68.62770604 78.67983173 65.91015625 78.8125 C64.73356445 78.84730469 64.73356445 78.84730469 63.53320312 78.8828125 C61.88996518 78.96075264 60.24673595 79.03887676 58.60351562 79.1171875 C57.81783203 79.14039062 57.03214844 79.16359375 56.22265625 79.1875 C55.50859619 79.22230469 54.79453613 79.25710937 54.05883789 79.29296875 C52 79 52 79 50.0480957 77.50219727 C47.48865424 75.62494809 46.14616712 75.6738654 43.0078125 75.77734375 C42.05519531 75.79603516 41.10257813 75.81472656 40.12109375 75.83398438 C39.13238281 75.86814453 38.14367187 75.90230469 37.125 75.9375 C25.34157287 76.30137718 25.34157287 76.30137718 20 74 C14.96170727 72.1913821 12.10708478 74.04289896 8 77 Z " fill="#A45E04" transform="translate(118,4)"/>
<path d="M0 0 C3.88113714 3.54364695 5.67710276 6.94893781 7 12 C7.42152344 11.36191406 7.84304687 10.72382813 8.27734375 10.06640625 C8.82519531 9.24011719 9.37304688 8.41382813 9.9375 7.5625 C10.48277344 6.73878906 11.02804688 5.91507813 11.58984375 5.06640625 C13 3 13 3 14 2 C17.05381859 1.56639493 19.94948345 1.53602283 23 2 C25.5625 4.0625 25.5625 4.0625 27 7 C27.25 10.8125 27.25 10.8125 27 14 C27.598125 14.103125 28.19625 14.20625 28.8125 14.3125 C31.40181017 15.1262832 32.32691336 15.87574392 34 18 C34.62527589 21.37423654 34.51017504 24.61177231 34 28 C32.1875 30.625 32.1875 30.625 30 32 C29.01 32 28.02 32 27 32 C27 32.66 27 33.32 27 34 C27.66 34 28.32 34 29 34 C30.56935594 37.13871188 30.35201103 39.53855822 30 43 C27.8125 45.9375 27.8125 45.9375 25 48 C22.1875 48.3125 22.1875 48.3125 20 48 C19.95875 48.928125 19.9175 49.85625 19.875 50.8125 C19 54 19 54 16.25 55.875 C13.12279679 56.95749342 11.24677264 57.51264831 8 57 C5.6875 55.5 5.6875 55.5 4 54 C3.979375 55.27875 3.95875 56.5575 3.9375 57.875 C3.92589844 58.59429687 3.91429688 59.31359375 3.90234375 60.0546875 C3.87350758 62.08185404 3.87350758 62.08185404 5 64 C4.34 64 3.68 64 3 64 C2.67 65.32 2.34 66.64 2 68 C0.68 67.34 -0.64 66.68 -2 66 C-2 62.37 -2 58.74 -2 55 C-3.32 55.99 -4.64 56.98 -6 58 C-8.9375 58.5625 -8.9375 58.5625 -12 58 C-15.05976787 55.13978221 -16.85276835 53.35453122 -17.3125 49.125 C-17.1578125 48.073125 -17.1578125 48.073125 -17 47 C-17.598125 46.896875 -18.19625 46.79375 -18.8125 46.6875 C-21.31803315 45.90004672 -22.32759243 44.99096139 -24 43 C-25.61730505 39.7653899 -25.72742643 36.48363849 -25 33 C-22.83394504 30.26743836 -20.11432576 28.55716288 -17 27 C-17.78375 26.608125 -18.5675 26.21625 -19.375 25.8125 C-22.44594603 23.69208488 -23.16223547 22.60238746 -24 19 C-23.9192814 15.04478842 -23.49138897 13.51868835 -20.75 10.625 C-17.80867557 8.88694466 -16.3450389 8.61770984 -13 9 C-13.103125 8.2575 -13.20625 7.515 -13.3125 6.75 C-13 4 -13 4 -11 1.6875 C-7.20016326 -0.44990816 -4.26167352 -1.13874677 0 0 Z " fill="#83C83E" transform="translate(118,4)"/>
<path d="M0 0 C3.1875 1.5625 3.1875 1.5625 5 4 C5.63223284 6.79906721 5.78439267 9.23028244 5 12 C3.40234375 14.21875 3.40234375 14.21875 1 16 C-2.3125 16.53125 -2.3125 16.53125 -6 16.5 C-7.8253125 16.51546875 -7.8253125 16.51546875 -9.6875 16.53125 C-13 16 -13 16 -15.3984375 14.21484375 C-17.35202782 11.51317128 -17.70124526 9.29628697 -17.49609375 5.9765625 C-16.79590082 3.18681746 -15.3850372 1.42909764 -13.046875 -0.21875 C-8.72075986 -1.86993898 -4.39410863 -1.08183222 0 0 Z " fill="#060503" transform="translate(141,181)"/>
<path d="M0 0 C4.97637961 4.21910445 6.0601981 8.68789767 7 15 C6.34 15 5.68 15 5 15 C4.67 13.35 4.34 11.7 4 10 C3.38125 9.896875 2.7625 9.79375 2.125 9.6875 C0 9 0 9 -2 6 C-3.65 6 -5.3 6 -7 6 C-7.33 9.3 -7.66 12.6 -8 16 C-10.97 15.67 -13.94 15.34 -17 15 C-17.33 16.65 -17.66 18.3 -18 20 C-15.36 21.32 -12.72 22.64 -10 24 C-12.25 26.5625 -12.25 26.5625 -15 29 C-17.3125 28.8125 -17.3125 28.8125 -19 28 C-18.34 27.67 -17.68 27.34 -17 27 C-17.78375 26.608125 -18.5675 26.21625 -19.375 25.8125 C-22.44594603 23.69208488 -23.16223547 22.60238746 -24 19 C-23.9192814 15.04478842 -23.49138897 13.51868835 -20.75 10.625 C-17.80867557 8.88694466 -16.3450389 8.61770984 -13 9 C-13.103125 8.2575 -13.20625 7.515 -13.3125 6.75 C-13 4 -13 4 -11 1.6875 C-7.18579312 -0.45799137 -4.27665034 -1.11677711 0 0 Z " fill="#84C940" transform="translate(118,4)"/>
<path d="M0 0 C2.5 0.125 2.5 0.125 3.5 1.125 C3.6875 3.5625 3.6875 3.5625 3.5 6.125 C2.84 6.785 2.18 7.445 1.5 8.125 C1.5 9.115 1.5 10.105 1.5 11.125 C4.47 11.455 7.44 11.785 10.5 12.125 C10.625 15.5 10.625 15.5 10.5 19.125 C8.5 21.125 8.5 21.125 5.3828125 21.35546875 C4.14273438 21.34128906 2.90265625 21.32710937 1.625 21.3125 C0.39007813 21.30605469 -0.84484375 21.29960938 -2.1171875 21.29296875 C-4.79073523 21.16021753 -6.96748155 20.92038896 -9.5 20.125 C-10.49845784 12.80297581 -7.05325911 7.3653498 -3.5 1.125 C-2.5 0.125 -2.5 0.125 0 0 Z " fill="#DAFCD4" transform="translate(136.5,10.875)"/>
<path d="M0 0 C2.625 0.3125 2.625 0.3125 4.27734375 1.81640625 C6.18199373 5.34414926 5.94677122 8.66519191 5.8125 12.5625 C5.79219727 13.68011719 5.79219727 13.68011719 5.77148438 14.8203125 C5.73627204 16.65135416 5.68246851 18.48202169 5.625 20.3125 C-1.34275594 20.7736015 -7.7375819 20.97536444 -13.375 16.3125 C-14.5 13.6875 -14.5 13.6875 -14.375 11.3125 C-13.715 10.6525 -13.055 9.9925 -12.375 9.3125 C-10 9.625 -10 9.625 -7.375 10.3125 C-6.04195023 10.64696556 -4.7086665 10.98050217 -3.375 11.3125 C-3.38660156 10.60222656 -3.39820312 9.89195313 -3.41015625 9.16015625 C-3.42369141 7.78150391 -3.42369141 7.78150391 -3.4375 6.375 C-3.44910156 5.45847656 -3.46070312 4.54195312 -3.47265625 3.59765625 C-3.33821426 0.45171374 -3.11546807 0.40993001 0 0 Z " fill="#DBFCD5" transform="translate(113.375,8.6875)"/>
<path d="M0 0 C0.70189453 0.00451172 1.40378906 0.00902344 2.12695312 0.01367188 C3.85550538 0.02543073 5.58401365 0.04336546 7.3125 0.0625 C7.77750903 7.27014 6.64855971 12.62171319 3.3125 19.0625 C2.6525 19.7225 1.9925 20.3825 1.3125 21.0625 C-2.22321429 20.52678571 -2.22321429 20.52678571 -3.6875 19.0625 C-3.86049981 15.86200343 -3.5972643 13.13295451 -2.6875 10.0625 C-3.986875 9.918125 -5.28625 9.77375 -6.625 9.625 C-10.5625 9.1875 -10.5625 9.1875 -11.6875 8.0625 C-11.40019945 5.72305264 -11.06813221 3.3885857 -10.6875 1.0625 C-7.06882441 -0.1437252 -3.76243749 -0.04566918 0 0 Z " fill="#DAFCD4" transform="translate(109.6875,35.9375)"/>
<path d="M0 0 C13.65975104 0.50219673 13.65975104 0.50219673 19 5 C19.8359375 7.01171875 19.8359375 7.01171875 20 9 C18 11 18 11 15.5625 11.1875 C13 11 13 11 10 10 C10.061875 11.27875 10.12375 12.5575 10.1875 13.875 C10.29296875 16.0546875 10.29296875 16.0546875 10 18 C7 20 7 20 4.3125 19.625 C3.1678125 19.315625 3.1678125 19.315625 2 19 C0.27706865 14.53665816 -0.22240791 10.89798769 -0.125 6.125 C-0.10695313 4.97257812 -0.08890625 3.82015625 -0.0703125 2.6328125 C-0.04710938 1.76398437 -0.02390625 0.89515625 0 0 Z " fill="#D8FBD1" transform="translate(124,36)"/>
<path d="M0 0 C1.875 1.125 1.875 1.125 3 3 C3.39365568 6.14924548 3.52854531 8.11909116 1.875 10.875 C-0.88090884 12.52854531 -2.85075452 12.39365568 -6 12 C-7.875 10.875 -7.875 10.875 -9 9 C-9.39365568 5.85075452 -9.52854531 3.88090884 -7.875 1.125 C-5.11909116 -0.52854531 -3.14924548 -0.39365568 0 0 Z " fill="#090705" transform="translate(107,157)"/>
<path d="M0 0 C2.15502531 3.23253796 2.46856135 4.25150923 2 8 C0.875 9.8125 0.875 9.8125 -1 11 C-4.14924548 11.39365568 -6.11909116 11.52854531 -8.875 9.875 C-10.52854531 7.11909116 -10.39365568 5.14924548 -10 2 C-7.65569181 -2.27491494 -4.20074737 -1.06928115 0 0 Z " fill="#080705" transform="translate(164,156)"/>
<path d="M0 0 C0.33 0 0.66 0 1 0 C1.33 1.65 1.66 3.3 2 5 C4.64 5.33 7.28 5.66 10 6 C11.0326802 8.78823655 11.04509293 9.8677274 10.0625 12.75 C9.711875 13.4925 9.36125 14.235 9 15 C8.34 14.34 7.68 13.68 7 13 C6.01 14.32 5.02 15.64 4 17 C4 15.35 4 13.7 4 12 C3.1028125 11.8453125 3.1028125 11.8453125 2.1875 11.6875 C-0.38757109 10.87819194 -1.48151913 10.23776128 -3 8 C-2.6875 5.3125 -2.6875 5.3125 -2 3 C-1.34 3 -0.68 3 0 3 C0 2.01 0 1.02 0 0 Z " fill="#87CB46" transform="translate(97,39)"/>
<path d="M0 0 C2.87780253 0.30833599 3.98960261 0.99021422 6.125 3 C8.53625423 6.85800677 9.2638888 10.55427579 10 15 C9.34 15 8.68 15 8 15 C7.67 13.35 7.34 11.7 7 10 C6.071875 9.8453125 6.071875 9.8453125 5.125 9.6875 C3 9 3 9 1 6 C0.01 5.34 -0.98 4.68 -2 4 C-1.34 2.68 -0.68 1.36 0 0 Z " fill="#8BCD4C" transform="translate(115,4)"/>
<path d="M0 0 C1.32 0.66 2.64 1.32 4 2 C6.03700527 2.0915061 7.96932388 1.93995649 10 1.77734375 C12.66806703 2.07437465 13.99276588 3.28399405 16 5 C15.35933594 5.12117188 14.71867188 5.24234375 14.05859375 5.3671875 C8.95071067 6.35679227 3.97749731 7.48510951 -1 9 C-0.67 6.03 -0.34 3.06 0 0 Z " fill="#F9FAF4" transform="translate(122,58)"/>
<path d="M0 0 C2 2 2 2 2.1953125 3.9453125 C2.13020833 5.96354167 2.06510417 7.98177083 2 10 C1.34 10 0.68 10 0 10 C0 10.66 0 11.32 0 12 C0.66 12 1.32 12 2 12 C2 13.65 2 15.3 2 17 C1.01 17 0.02 17 -1 17 C-1.33 11.72 -1.66 6.44 -2 1 C-1.34 0.67 -0.68 0.34 0 0 Z " fill="#79C431" transform="translate(121,12)"/>
<path d="M0 0 C1.47919922 0.19142578 1.47919922 0.19142578 2.98828125 0.38671875 C4.47908203 0.56654297 4.47908203 0.56654297 6 0.75 C6.75925781 0.85699219 7.51851562 0.96398437 8.30078125 1.07421875 C6.30078125 3.07421875 6.30078125 3.07421875 3.48046875 3.26953125 C2.38992187 3.24632812 1.299375 3.223125 0.17578125 3.19921875 C-0.91992188 3.18117187 -2.015625 3.163125 -3.14453125 3.14453125 C-3.98757812 3.12132812 -4.830625 3.098125 -5.69921875 3.07421875 C-3.85219692 0.62202936 -3.13798948 0.08628336 0 0 Z " fill="#72C52E" transform="translate(108.69921875,28.92578125)"/>
<path d="M0 0 C0.08090971 1.62418745 0.13914995 3.24951745 0.1875 4.875 C0.22230469 5.77992187 0.25710937 6.68484375 0.29296875 7.6171875 C0.19628906 8.40351562 0.09960938 9.18984375 0 10 C-0.99 10.66 -1.98 11.32 -3 12 C-3 8.37 -3 4.74 -3 1 C-1 0 -1 0 0 0 Z " fill="#79C42F" transform="translate(121,57)"/>
<path d="M0 0 C0.66 0.33 1.32 0.66 2 1 C2 4.3 2 7.6 2 11 C-1 8 -1 8 -1.07421875 5.95703125 C-0.71614583 3.97135417 -0.35807292 1.98567708 0 0 Z " fill="#70C52D" transform="translate(118,39)"/>
</svg>
