<?xml version="1.0" encoding="UTF-8"?>
<svg version="1.1" xmlns="http://www.w3.org/2000/svg" width="128" height="128">
<path d="M0 0 C11.22298468 10.39018369 16.40212198 24.20588821 17.625 39.125 C17.11676361 52.98855933 11.94542143 67.46835806 2.24609375 77.578125 C-9.70049218 88.29385056 -23.35569943 93.87494548 -39.359375 93.55859375 C-55.14005562 92.39171244 -68.07558038 85.02220278 -78.46484375 73.30859375 C-88.75780193 60.34418077 -91.02130419 46.40343191 -89.6875 30.3125 C-87.3107727 16.69257171 -79.50849263 4.8147085 -68.6875 -3.6875 C-46.18694527 -17.8782576 -20.90197029 -17.20717756 0 0 Z " fill="#FCCE99" transform="translate(100.6875,22.6875)"/>
<path d="M0 0 C11.22298468 10.39018369 16.40212198 24.20588821 17.625 39.125 C17.11676361 52.98855933 11.94542143 67.46835806 2.24609375 77.578125 C-9.70049218 88.29385056 -23.35569943 93.87494548 -39.359375 93.55859375 C-55.14005562 92.39171244 -68.07558038 85.02220278 -78.46484375 73.30859375 C-88.75780193 60.34418077 -91.02130419 46.40343191 -89.6875 30.3125 C-87.3107727 16.69257171 -79.50849263 4.8147085 -68.6875 -3.6875 C-46.18694527 -17.8782576 -20.90197029 -17.20717756 0 0 Z M-48.125 -4 C-50.00070625 -1.78178518 -50.00070625 -1.78178518 -49.3125 0.9375 C-49.10625 1.72125 -48.9 2.505 -48.6875 3.3125 C-49.3475 3.9725 -50.0075 4.6325 -50.6875 5.3125 C-50.39071642 9.07175869 -49.41745825 11.68004026 -46.6875 14.3125 C-44.06124861 14.64675735 -44.06124861 14.64675735 -41.6875 14.3125 C-42.0175 14.9725 -42.3475 15.6325 -42.6875 16.3125 C-44.4509375 16.2196875 -44.4509375 16.2196875 -46.25 16.125 C-50.65155487 16.125 -53.70618762 17.39293867 -57.6875 19.3125 C-58.99857381 19.7336328 -60.31113539 20.15015653 -61.625 20.5625 C-67.72341599 22.82864291 -72.37903099 27.00087141 -75.5625 32.625 C-75.93375 33.511875 -76.305 34.39875 -76.6875 35.3125 C-77.3475 35.9725 -78.0075 36.6325 -78.6875 37.3125 C-79.02676947 39.64497761 -79.35990066 41.97835471 -79.6875 44.3125 C-80.3475 45.3025 -81.0075 46.2925 -81.6875 47.3125 C-82.36650587 51.89578963 -82.92691897 57.02216685 -80.66015625 61.2109375 C-77.74367212 64.00623808 -74.86283833 64.59913442 -71 64.6875 C-68.23913183 64.56352319 -66.34705769 64.19901923 -63.6875 63.3125 C-63.7803125 64.67375 -63.7803125 64.67375 -63.875 66.0625 C-63.66711136 69.66590306 -63.30347369 70.87693829 -60.6875 73.3125 C-59.90375 73.456875 -59.12 73.60125 -58.3125 73.75 C-55.6875 74.3125 -55.6875 74.3125 -53.5625 76.8125 C-49.76651241 80.11335877 -46.91483711 79.98848203 -42.015625 80.171875 C-39.6875 80.3125 -39.6875 80.3125 -38.6875 81.3125 C-31.78430955 82.07673706 -26.45668037 81.18474625 -20.18359375 78.32421875 C-16.76947017 76.9404034 -13.35324806 76.41416389 -9.71875 75.90234375 C-7.30595973 75.43824251 -7.30595973 75.43824251 -5.6875 72.3125 C-5.11033146 70.34902234 -4.59524989 68.36679143 -4.125 66.375 C-3.87621094 65.33472656 -3.62742187 64.29445313 -3.37109375 63.22265625 C-3.14550781 62.26230469 -2.91992188 61.30195312 -2.6875 60.3125 C-2.35674427 58.97852491 -2.02460913 57.6448837 -1.6875 56.3125 C0.29817708 56.44270833 2.28385417 56.57291667 4.26953125 56.703125 C6.46108292 56.47833949 6.46108292 56.47833949 8.05078125 54.62109375 C10.68806662 49.79559637 9.88704024 43.92724437 8.73828125 38.69921875 C7.53602855 34.81257114 6.52704193 31.95685326 3.3125 29.3125 C2.6525 29.3125 1.9925 29.3125 1.3125 29.3125 C1.22613281 28.70664062 1.13976562 28.10078125 1.05078125 27.4765625 C0.10028758 24.69045937 -0.97968508 24.13703177 -3.5 22.6875 C-4.53060547 22.08035156 -4.53060547 22.08035156 -5.58203125 21.4609375 C-6.27683594 21.08195312 -6.97164063 20.70296875 -7.6875 20.3125 C-8.3578125 19.94511719 -9.028125 19.57773437 -9.71875 19.19921875 C-12.60147027 17.90085069 -15.57116007 17.72409207 -18.6875 17.3125 C-19.0175 16.9825 -19.3475 16.6525 -19.6875 16.3125 C-22.48511588 16.04746271 -25.25856888 15.84327395 -28.0625 15.6875 C-28.84367187 15.6359375 -29.62484375 15.584375 -30.4296875 15.53125 C-33.82620359 15.33350762 -36.43041955 15.22680652 -39.6875 16.3125 C-39.3575 15.6525 -39.0275 14.9925 -38.6875 14.3125 C-36.125 13.6875 -36.125 13.6875 -33.6875 13.3125 C-33.6875 12.6525 -33.6875 11.9925 -33.6875 11.3125 C-33.06875 11.27125 -32.45 11.23 -31.8125 11.1875 C-29.38287008 10.46479753 -29.38287008 10.46479753 -28.375 7.5625 C-27.68877394 4.31852225 -27.7631788 2.45519207 -28.6875 -0.6875 C-29.3475 -0.6875 -30.0075 -0.6875 -30.6875 -0.6875 C-31.1825 -2.6675 -31.1825 -2.6675 -31.6875 -4.6875 C-33.53475052 -5.37909401 -33.53475052 -5.37909401 -35.6875 -5.6875 C-36.6775 -5.0275 -37.6675 -4.3675 -38.6875 -3.6875 C-39.1825 -4.6775 -39.1825 -4.6775 -39.6875 -5.6875 C-43.28758519 -6.01478047 -45.10361492 -6.09172813 -48.125 -4 Z " fill="#FDFDFC" transform="translate(100.6875,22.6875)"/>
<path d="M0 0 C0.66 0.66 1.32 1.32 2 2 C2.66 1.34 3.32 0.68 4 0 C6.125 0.375 6.125 0.375 8 1 C8.1546875 1.9590625 8.1546875 1.9590625 8.3125 2.9375 C8.6528125 3.9584375 8.6528125 3.9584375 9 5 C9.99 5.33 10.98 5.66 12 6 C11.32829194 9.8063457 10.27253436 13.35206816 9 17 C8.01 17 7.02 17 6 17 C5.505 18.485 5.505 18.485 5 20 C3.68 20 2.36 20 1 20 C0.67 20.66 0.34 21.32 0 22 C1.0725 21.814375 2.145 21.62875 3.25 21.4375 C8.84608772 20.72417464 14.43099738 21.19806362 20 22 C20.33 22.33 20.66 22.66 21 23 C22.423125 23.0928125 22.423125 23.0928125 23.875 23.1875 C30.0360276 23.95602735 36.64445834 27.64445834 41 32 C41 32.99 41 33.98 41 35 C41.598125 35.226875 42.19625 35.45375 42.8125 35.6875 C45.64276332 37.38565799 46.56000848 39.05144593 48 42 C48.86481352 45.54275331 49.18920384 48.91979701 49.25 52.5625 C49.27578125 53.49191406 49.3015625 54.42132813 49.328125 55.37890625 C48.93825151 58.49325284 48.2585324 59.83241521 46 62 C43.23857697 62.52799676 40.83634455 62.18598981 38 62 C37.89042969 62.54527344 37.78085938 63.09054688 37.66796875 63.65234375 C34.43141153 79.04572565 34.43141153 79.04572565 30 82 C28.09958375 82.20004382 26.19891587 82.39807474 24.296875 82.58203125 C21.68913969 83.05656812 19.59855032 83.96831315 17.1875 85.0625 C11.81322329 87.36576145 6.7863151 87.64059024 1 87 C0.67 86.67 0.34 86.34 0 86 C-1.74879568 85.89436805 -3.49924318 85.81553635 -5.25 85.75 C-10.62254367 85.32712882 -10.62254367 85.32712882 -13.8125 82.5625 C-14.534375 81.716875 -15.25625 80.87125 -16 80 C-17.98799818 79.29835358 -19.98698517 78.62627128 -22 78 C-24.29013653 74.5647952 -24.17842973 73.014669 -24 69 C-24.60328125 69.08378906 -25.2065625 69.16757813 -25.828125 69.25390625 C-27.02695312 69.40666016 -27.02695312 69.40666016 -28.25 69.5625 C-29.43335938 69.71912109 -29.43335938 69.71912109 -30.640625 69.87890625 C-34.20027596 70.06160357 -36.5517049 69.21395903 -39.75 67.6875 C-42.96320984 63.84949936 -42.47334805 60.6434453 -42.37109375 55.77734375 C-42 53 -42 53 -40 50 C-39.7834375 48.2675 -39.7834375 48.2675 -39.5625 46.5 C-38.96009892 42.75172659 -38.66275549 42.35551447 -36 40 C-35.608125 39.0925 -35.21625 38.185 -34.8125 37.25 C-31.72678662 31.71699669 -27.43127788 27.85307996 -21.4375 25.75 C-19.7359375 25.37875 -19.7359375 25.37875 -18 25 C-16.2984375 24.195625 -16.2984375 24.195625 -14.5625 23.375 C-10.32012679 21.7375928 -7.50020925 21.76314688 -3 22 C-2.67 21.34 -2.34 20.68 -2 20 C-2.7425 20.103125 -3.485 20.20625 -4.25 20.3125 C-7 20 -7 20 -9.375 17.8125 C-11 15 -11 15 -10.75 12.3125 C-10.5025 11.549375 -10.255 10.78625 -10 10 C-10 9.34 -10 8.68 -10 8 C-9.65901503 5.34031724 -9.28998578 3.44260987 -7.8125 1.1875 C-5.14756532 -0.55849169 -3.10903561 -0.33074847 0 0 Z M1 28 C-1.1640625 27.8359375 -1.1640625 27.8359375 -3.625 27.375 C-8.60396837 26.74355649 -11.55144442 27.67424073 -15.953125 29.953125 C-18 31 -18 31 -21.5 32.0625 C-22.325 32.371875 -23.15 32.68125 -24 33 C-24.33 33.99 -24.66 34.98 -25 36 C-25.639375 36.103125 -26.27875 36.20625 -26.9375 36.3125 C-27.618125 36.539375 -28.29875 36.76625 -29 37 C-29.71706982 38.98248715 -30.38290413 40.98415349 -31 43 C-31.99 43.66 -32.98 44.32 -34 45 C-34.67084112 48.44579041 -34.67084112 48.44579041 -35 52 C-35.33 52.99 -35.66 53.98 -36 55 C-34.97418332 60.44263256 -34.97418332 60.44263256 -31 64 C-28.84725052 63.69159401 -28.84725052 63.69159401 -27 63 C-26.81824219 62.10796875 -26.63648438 61.2159375 -26.44921875 60.296875 C-26.07216797 58.54117188 -26.07216797 58.54117188 -25.6875 56.75 C-25.44386719 55.58984375 -25.20023438 54.4296875 -24.94921875 53.234375 C-24.03318099 50.11306114 -23.2875587 48.2875587 -21 46 C-17.8125 45.75 -17.8125 45.75 -15 46 C-15.3125 47.9375 -15.3125 47.9375 -16 50 C-16.99 50.33 -17.98 50.66 -19 51 C-19.22142255 52.95689659 -19.4267568 54.91561952 -19.625 56.875 C-19.74101563 57.96554688 -19.85703125 59.05609375 -19.9765625 60.1796875 C-19.98429687 61.11039063 -19.99203125 62.04109375 -20 63 C-19.34 63.66 -18.68 64.32 -18 65 C-18.0825 66.27875 -18.165 67.5575 -18.25 68.875 C-18.39426537 71.01143074 -18.39426537 71.01143074 -18 73 C-15.15031532 75.37227618 -15.15031532 75.37227618 -12 77 C-11.67 77.99 -11.34 78.98 -11 80 C-10.16855469 80.04898438 -9.33710937 80.09796875 -8.48046875 80.1484375 C-7.39378906 80.22320312 -6.30710937 80.29796875 -5.1875 80.375 C-4.10855469 80.44460937 -3.02960937 80.51421875 -1.91796875 80.5859375 C1 81 1 81 4 83 C6.54207971 83.33343551 6.54207971 83.33343551 9 83 C9.66 82.34 10.32 81.68 11 81 C13.04573478 80.66330615 15.05600952 80.55930828 17.125 80.44140625 C19.40685245 80.1294203 19.40685245 80.1294203 21 77 C22.9453125 76.70703125 22.9453125 76.70703125 25.125 76.8125 C26.40375 76.874375 27.6825 76.93625 29 77 C29.47352566 75.30883694 29.94670712 73.6175766 30.41796875 71.92578125 C31 70 31 70 32.1875 67.0625 C33.26896813 62.98619705 32.67138869 60.1626099 32 56 C32 54.68 32 53.36 32 52 C31.7018576 50.65835921 31.37756808 49.32148827 31 48 C30.34 48 29.68 48 29 48 C28.896875 47.38125 28.79375 46.7625 28.6875 46.125 C28.12474627 43.63473516 28.12474627 43.63473516 25 42 C25 41.01 25 40.02 25 39 C31.48781973 40.34652862 31.48781973 40.34652862 33.8125 43.3125 C34.4003125 44.6428125 34.4003125 44.6428125 35 46 C35.5878125 47.2065625 35.5878125 47.2065625 36.1875 48.4375 C37.12739168 51.40177376 37.14378455 53.90863219 37 57 C39.31 56.67 41.62 56.34 44 56 C44.54122907 49.77586566 43.12101205 44.44872338 40 39 C39.01 38.67 38.02 38.34 37 38 C36.4121875 36.8553125 36.4121875 36.8553125 35.8125 35.6875 C33.21395118 31.83447933 30.33752444 30.31403265 26 29 C21.66937917 28.22934216 17.30302012 27.80188934 12.92578125 27.39453125 C9 27 9 27 6.16796875 26.32421875 C3.70967053 25.70846262 3.70967053 25.70846262 1 28 Z " fill="#A5600A" transform="translate(61,17)"/>
<path d="M0 0 C0.66 0.66 1.32 1.32 2 2 C2.66 1.34 3.32 0.68 4 0 C6.125 0.375 6.125 0.375 8 1 C8.103125 1.639375 8.20625 2.27875 8.3125 2.9375 C8.6528125 3.9584375 8.6528125 3.9584375 9 5 C9.99 5.33 10.98 5.66 12 6 C11.32829194 9.8063457 10.27253436 13.35206816 9 17 C8.01 17 7.02 17 6 17 C5.67 17.99 5.34 18.98 5 20 C3.68 20 2.36 20 1 20 C0.67 20.66 0.34 21.32 0 22 C0.66 22.33 1.32 22.66 2 23 C0.68 23.33 -0.64 23.66 -2 24 C-2 22.68 -2 21.36 -2 20 C-2.7425 20.103125 -3.485 20.20625 -4.25 20.3125 C-7 20 -7 20 -9.375 17.8125 C-11 15 -11 15 -10.75 12.3125 C-10.5025 11.549375 -10.255 10.78625 -10 10 C-10 9.34 -10 8.68 -10 8 C-9.65901503 5.34031724 -9.28998578 3.44260987 -7.8125 1.1875 C-5.14756532 -0.55849169 -3.10903561 -0.33074847 0 0 Z " fill="#89CC4A" transform="translate(61,17)"/>
<path d="M0 0 C2.125 0.375 2.125 0.375 4 1 C4.103125 1.639375 4.20625 2.27875 4.3125 2.9375 C4.539375 3.618125 4.76625 4.29875 5 5 C5.99 5.33 6.98 5.66 8 6 C7.32829194 9.8063457 6.27253436 13.35206816 5 17 C4.01 17 3.02 17 2 17 C1.67 17.99 1.34 18.98 1 20 C-0.32 19.34 -1.64 18.68 -3 18 C-3 15.69 -3 13.38 -3 11 C2.75 11.875 2.75 11.875 5 13 C5 12.01 5 11.02 5 10 C2.69 10 0.38 10 -2 10 C-2.1953125 3.9453125 -2.1953125 3.9453125 -2 2 C-1.34 1.34 -0.68 0.68 0 0 Z " fill="#84C940" transform="translate(65,17)"/>
<path d="M0 0 C2.97 0.33 5.94 0.66 9 1 C8.979375 2.0725 8.95875 3.145 8.9375 4.25 C8.98092387 8.23645057 8.98092387 8.23645057 10 12 C10.66 12.33 11.32 12.66 12 13 C10.68 13.33 9.36 13.66 8 14 C8 12.68 8 11.36 8 10 C7.2575 10.103125 6.515 10.20625 5.75 10.3125 C3 10 3 10 0.625 7.8125 C-1 5 -1 5 -0.75 2.1875 C-0.5025 1.465625 -0.255 0.74375 0 0 Z " fill="#90C94E" transform="translate(51,27)"/>
<path d="M0 0 C0.66 0 1.32 0 2 0 C2 1.65 2 3.3 2 5 C4.31 5 6.62 5 9 5 C9 5.99 9 6.98 9 8 C6.36 7.34 3.72 6.68 1 6 C1.32960216 11.01535052 1.32960216 11.01535052 4 15 C2.35 15 0.7 15 -1 15 C-2.125 9.375 -2.125 9.375 -1 6 C-3.31 6 -5.62 6 -8 6 C-7.67 5.34 -7.34 4.68 -7 4 C-4.69 4 -2.38 4 0 4 C0 2.68 0 1.36 0 0 Z " fill="#79C430" transform="translate(61,22)"/>
<path d="M0 0 C2.4375 0.1875 2.4375 0.1875 3.4375 1.1875 C3.47813832 2.85367115 3.480221 4.52138095 3.4375 6.1875 C1.1275 6.1875 -1.1825 6.1875 -3.5625 6.1875 C-4.1875 4.3125 -4.1875 4.3125 -4.5625 2.1875 C-2.5625 0.1875 -2.5625 0.1875 0 0 Z " fill="#0F0C09" transform="translate(66.5625,80.8125)"/>
<path d="M0 0 C0.66 0 1.32 0 2 0 C2 0.99 2 1.98 2 3 C2.99 3.33 3.98 3.66 5 4 C4.67 5.32 4.34 6.64 4 8 C1.69 8 -0.62 8 -3 8 C-2.25 2.25 -2.25 2.25 0 0 Z " fill="#D2F6C6" transform="translate(66,19)"/>
<path d="M0 0 C0.99 0.33 1.98 0.66 3 1 C3 3.31 3 5.62 3 8 C0.03 7.505 0.03 7.505 -3 7 C-3.33 6.01 -3.66 5.02 -4 4 C-2.68 4 -1.36 4 0 4 C0 2.68 0 1.36 0 0 Z " fill="#D9FAD2" transform="translate(57,18)"/>
<path d="M0 0 C2.31 0 4.62 0 7 0 C6.67 1.98 6.34 3.96 6 6 C5.01 6.33 4.02 6.66 3 7 C3 6.01 3 5.02 3 4 C2.01 3.67 1.02 3.34 0 3 C0 2.01 0 1.02 0 0 Z " fill="#D9F9D2" transform="translate(52,29)"/>
<path d="M0 0 C2.97 0.495 2.97 0.495 6 1 C6.33 1.99 6.66 2.98 7 4 C5.68 4 4.36 4 3 4 C3 4.99 3 5.98 3 7 C2.01 7 1.02 7 0 7 C0 4.69 0 2.38 0 0 Z " fill="#D7F8CF" transform="translate(62,28)"/>
<path d="M0 0 C0.66 0.66 1.32 1.32 2 2 C1.34 3.98 0.68 5.96 0 8 C-0.99 8 -1.98 8 -3 8 C-3.33 8.99 -3.66 9.98 -4 11 C-4.99 10.34 -5.98 9.68 -7 9 C-6.34 9 -5.68 9 -5 9 C-5 8.01 -5 7.02 -5 6 C-3.68 6 -2.36 6 -1 6 C-0.67 4.02 -0.34 2.04 0 0 Z " fill="#8FCF53" transform="translate(70,26)"/>
<path d="M0 0 C-1.49097658 3.7952131 -3.75700849 5.61042731 -7 8 C-7 5 -7 5 -4.625 2.3125 C-2 0 -2 0 0 0 Z " fill="#A9671B" transform="translate(35,46)"/>
<path d="M0 0 C1.52519276 0.08937803 3.04681929 0.24537146 4.5625 0.4375 C5.80193359 0.59025391 5.80193359 0.59025391 7.06640625 0.74609375 C7.70449219 0.82988281 8.34257813 0.91367187 9 1 C8.67 1.99 8.34 2.98 8 4 C8 3.34 8 2.68 8 2 C5.69 2 3.38 2 1 2 C0.67 3.32 0.34 4.64 0 6 C-0.38218767 4.34385343 -0.71395102 2.67542976 -1 1 C-0.67 0.67 -0.34 0.34 0 0 Z " fill="#9CD66A" transform="translate(51,27)"/>
<path d="M0 0 C1.98 0.495 1.98 0.495 4 1 C4 1.99 4 2.98 4 4 C2.35 3.67 0.7 3.34 -1 3 C-0.67 2.01 -0.34 1.02 0 0 Z " fill="#1A150F" transform="translate(74,72)"/>
<path d="M0 0 C2.475 0.495 2.475 0.495 5 1 C4.67 1.99 4.34 2.98 4 4 C2.68 3.67 1.36 3.34 0 3 C0 2.01 0 1.02 0 0 Z " fill="#19140F" transform="translate(52,73)"/>
</svg>
